# xmcd CD database file
#
# Track frame offsets:
#	150
#	23011
#	45064
#	65049
#	89280
#	115680
#	135556
#	155541
#	182427
#	199934
#
# Disc length: 2956 seconds
#
# Revision: 0
# Processed by: cddbd v1.5.1PL2 Copyright (c) Steve Scherf et al.
# Submitted via: CDex 1.51
#
DISCID=770b8a0a
DTITLE=浅岡雄也 - ウタイタイ　其の一
DYEAR=2006
DGENRE=JPop
TTITLE0=ヒカリ
TTITLE1=ウタノチカラ 〜Arrange 2006〜
TTITLE2=モドレナイダケナンダ
TTITLE3=アリガトウ
TTITLE4=コトノハ 〜Arrange 2006〜
TTITLE5=ココロ
TTITLE6=キボウノネイロ 〜Arrange 2006〜
TTITLE7=サヨナライツカ
TTITLE8=トキノシズク 〜Arrange 2006〜
TTITLE9=アイシテル
EXTD=YEAR: 2006/04/26
EXTT0=
EXTT1=
EXTT2=
EXTT3=
EXTT4=
EXTT5=
EXTT6=
EXTT7=
EXTT8=
EXTT9=
PLAYORDER=
